<svg width="1400" height="800" viewBox="0 0 1400 800" fill="none" xmlns="http://www.w3.org/2000/svg">
<defs>
<linearGradient id="studioGrad" x1="0%" y1="0%" x2="100%" y2="100%">
<stop offset="0%" style="stop-color:#374151;stop-opacity:1" />
<stop offset="35%" style="stop-color:#1f2937;stop-opacity:1" />
<stop offset="70%" style="stop-color:#0f4c5c;stop-opacity:1" />
<stop offset="100%" style="stop-color:#134e4a;stop-opacity:1" />
</linearGradient>
<pattern id="floorPattern" patternUnits="userSpaceOnUse" width="50" height="50">
<rect width="50" height="50" fill="#374151"/>
<rect x="0" y="0" width="25" height="25" fill="#4b5563"/>
<rect x="25" y="25" width="25" height="25" fill="#4b5563"/>
</pattern>
</defs>
<rect width="1400" height="800" fill="url(#studioGrad)"/>
<rect x="0" y="600" width="1400" height="200" fill="url(#floorPattern)" opacity="0.5"/>
<rect x="100" y="450" width="200" height="150" fill="#4b5563" rx="10"/>
<rect x="120" y="470" width="160" height="100" fill="#6b7280" rx="5"/>
<text x="200" y="530" fill="#e5e7eb" font-family="Arial, sans-serif" font-size="16" text-anchor="middle">PRINTER 1</text>
<rect x="350" y="420" width="180" height="180" fill="#4b5563" rx="10"/>
<rect x="365" y="435" width="150" height="120" fill="#6b7280" rx="5"/>
<text x="440" y="505" fill="#e5e7eb" font-family="Arial, sans-serif" font-size="14" text-anchor="middle">PRINTER 2</text>
<rect x="600" y="400" width="250" height="200" fill="#374151" rx="15"/>
<rect x="620" y="420" width="210" height="140" fill="#4b5563" rx="8"/>
<text x="725" y="500" fill="#14b8a6" font-family="Arial, sans-serif" font-size="18" font-weight="bold" text-anchor="middle">DESIGN STATION</text>
<rect x="900" y="460" width="160" height="140" fill="#4b5563" rx="8"/>
<text x="980" y="540" fill="#e5e7eb" font-family="Arial, sans-serif" font-size="14" text-anchor="middle">FINISHING</text>
<rect x="1100" y="440" width="200" height="160" fill="#4b5563" rx="10"/>
<text x="1200" y="530" fill="#e5e7eb" font-family="Arial, sans-serif" font-size="16" text-anchor="middle">STORAGE</text>
<circle cx="200" cy="200" r="50" fill="#22c55e" opacity="0.7"/>
<rect x="180" y="250" width="40" height="80" fill="#16a34a"/>
<circle cx="500" cy="150" r="40" fill="#22c55e" opacity="0.6"/>
<rect x="485" y="190" width="30" height="60" fill="#16a34a"/>
<circle cx="800" cy="180" r="45" fill="#22c55e" opacity="0.8"/>
<rect x="780" y="225" width="40" height="75" fill="#16a34a"/>
<circle cx="1100" cy="160" r="35" fill="#22c55e" opacity="0.5"/>
<rect x="1085" y="195" width="30" height="55" fill="#16a34a"/>
<rect x="50" y="50" width="1300" height="80" fill="#1f2937" opacity="0.8" rx="10"/>
<text x="700" y="105" fill="#14b8a6" font-family="Arial, sans-serif" font-size="36" font-weight="bold" text-anchor="middle">ZAPRINT MODERN STUDIO</text>
<circle cx="300" cy="300" r="20" fill="#fbbf24" opacity="0.9"/>
<circle cx="600" cy="280" r="25" fill="#fbbf24" opacity="0.7"/>
<circle cx="900" cy="320" r="22" fill="#fbbf24" opacity="0.8"/>
<circle cx="1200" cy="290" r="18" fill="#fbbf24" opacity="0.6"/>
</svg>