<svg width="800" height="600" viewBox="0 0 800 600" fill="none" xmlns="http://www.w3.org/2000/svg">
<defs>
<linearGradient id="workspaceGrad" x1="0%" y1="0%" x2="100%" y2="100%">
<stop offset="0%" style="stop-color:#475569;stop-opacity:1" />
<stop offset="50%" style="stop-color:#334155;stop-opacity:1" />
<stop offset="100%" style="stop-color:#1f2937;stop-opacity:1" />
</linearGradient>
<pattern id="woodPattern" patternUnits="userSpaceOnUse" width="100" height="20">
<rect width="100" height="20" fill="#8b4513"/>
<rect x="0" y="0" width="100" height="10" fill="#a0522d"/>
<rect x="0" y="10" width="100" height="10" fill="#8b4513"/>
</pattern>
</defs>
<rect width="800" height="600" fill="url(#workspaceGrad)"/>
<rect x="0" y="400" width="800" height="200" fill="url(#woodPattern)" opacity="0.6"/>
<rect x="50" y="350" width="150" height="100" fill="#4b5563" rx="5"/>
<rect x="60" y="360" width="130" height="60" fill="#6b7280" rx="3"/>
<text x="125" y="395" fill="#e5e7eb" font-family="Arial, sans-serif" font-size="12" text-anchor="middle">PRINTER</text>
<rect x="250" y="320" width="200" height="130" fill="#374151" rx="8"/>
<rect x="260" y="330" width="180" height="80" fill="#4b5563" rx="5"/>
<text x="350" y="380" fill="#14b8a6" font-family="Arial, sans-serif" font-size="14" font-weight="bold" text-anchor="middle">WORKSPACE</text>
<circle cx="600" cy="150" r="40" fill="#22c55e" opacity="0.7"/>
<rect x="580" y="190" width="40" height="60" fill="#16a34a"/>
<text x="600" y="260" fill="#e5e7eb" font-family="Arial, sans-serif" font-size="10" text-anchor="middle">PLANT</text>
<rect x="500" y="350" width="120" height="80" fill="#7c2d12" rx="5"/>
<text x="560" y="395" fill="#fed7aa" font-family="Arial, sans-serif" font-size="11" text-anchor="middle">MATERIALS</text>
<circle cx="150" cy="100" r="25" fill="#fbbf24" opacity="0.8"/>
<circle cx="200" cy="80" r="20" fill="#fbbf24" opacity="0.6"/>
<circle cx="250" cy="120" r="30" fill="#fbbf24" opacity="0.4"/>
</svg>